<?xml version="1.0" encoding="UTF-8" standalone="no"?>
<!DOCTYPE svg PUBLIC "-//W3C//DTD SVG 1.1//EN"
 "http://www.w3.org/Graphics/SVG/1.1/DTD/svg11.dtd">
<!-- Generated by graphviz version 2.40.1 (20161225.0304)
 -->
<!-- Title: %3 Pages: 1 -->
<svg width="141pt" height="166pt"
 viewBox="0.00 0.00 140.72 166.40" xmlns="http://www.w3.org/2000/svg" xmlns:xlink="http://www.w3.org/1999/xlink">
<g id="graph0" class="graph" transform="scale(1 1) rotate(0) translate(7.2 159.2)">
<title>%3</title>
<polygon fill="#ffffff" stroke="transparent" points="-7.2,7.2 -7.2,-159.2 133.5177,-159.2 133.5177,7.2 -7.2,7.2"/>
<!-- tails -->
<g id="node1" class="node">
<title>tails</title>
<ellipse fill="none" stroke="#000000" cx="34.2018" cy="-134" rx="27" ry="18"/>
<text text-anchor="middle" x="34.2018" y="-129.8" font-family="Helvetica,sans-Serif" font-size="14.00" fill="#000000">tails</text>
</g>
<!-- tails&#45;&gt;tails -->
<g id="edge1" class="edge">
<title>tails&#45;&gt;tails</title>
<path fill="none" stroke="#ff0000" stroke-opacity="0.513725" d="M57.2111,-143.7041C73.7386,-146.8636 90.2018,-143.6289 90.2018,-134 90.2018,-126.4022 79.9515,-122.7855 67.5074,-123.15"/>
<polygon fill="#ff0000" fill-opacity="0.513725" stroke="#ff0000" stroke-opacity="0.513725" points="66.7626,-119.7112 57.2111,-124.2959 67.5369,-126.6683 66.7626,-119.7112"/>
<text text-anchor="middle" x="104.6588" y="-131.6" font-family="Helvetica,sans-Serif" font-size="8.00" fill="#f00000"> 0.4998 </text>
</g>
<!-- heads -->
<g id="node2" class="node">
<title>heads</title>
<ellipse fill="none" stroke="#000000" cx="34.2018" cy="-18" rx="34.4048" ry="18"/>
<text text-anchor="middle" x="34.2018" y="-13.8" font-family="Helvetica,sans-Serif" font-size="14.00" fill="#000000">heads</text>
</g>
<!-- tails&#45;&gt;heads -->
<g id="edge2" class="edge">
<title>tails&#45;&gt;heads</title>
<path fill="none" stroke="#ff0000" stroke-opacity="0.513725" d="M21.2731,-118.0862C13.8334,-107.874 5.205,-93.9531 1.2877,-80 -2.4395,-66.7233 3.5589,-53.0702 11.4135,-41.9674"/>
<polygon fill="#ff0000" fill-opacity="0.513725" stroke="#ff0000" stroke-opacity="0.513725" points="14.2287,-44.0494 17.6514,-34.0226 8.723,-39.7265 14.2287,-44.0494"/>
<text text-anchor="middle" x="16.6588" y="-73.6" font-family="Helvetica,sans-Serif" font-size="8.00" fill="#f00000"> 0.5002 </text>
</g>
<!-- heads&#45;&gt;tails -->
<g id="edge3" class="edge">
<title>heads&#45;&gt;tails</title>
<path fill="none" stroke="#ff0000" stroke-opacity="0.513725" d="M34.2018,-36.3805C34.2018,-55.0105 34.2018,-84.0869 34.2018,-105.6661"/>
<polygon fill="#ff0000" fill-opacity="0.513725" stroke="#ff0000" stroke-opacity="0.513725" points="30.7019,-105.875 34.2018,-115.875 37.7019,-105.875 30.7019,-105.875"/>
<text text-anchor="middle" x="48.6588" y="-73.6" font-family="Helvetica,sans-Serif" font-size="8.00" fill="#f00000"> 0.5000 </text>
</g>
<!-- heads&#45;&gt;heads -->
<g id="edge4" class="edge">
<title>heads&#45;&gt;heads</title>
<path fill="none" stroke="#ff0000" stroke-opacity="0.513725" d="M62.8011,-28.1077C80.5308,-30.545 97.4036,-27.1758 97.4036,-18 97.4036,-10.6164 86.4781,-6.9926 72.9722,-7.1287"/>
<polygon fill="#ff0000" fill-opacity="0.513725" stroke="#ff0000" stroke-opacity="0.513725" points="72.511,-3.6534 62.8011,-7.8923 73.0351,-10.6337 72.511,-3.6534"/>
<text text-anchor="middle" x="111.8607" y="-15.6" font-family="Helvetica,sans-Serif" font-size="8.00" fill="#f00000"> 0.5000 </text>
</g>
</g>
</svg>
