<?xml version="1.0" encoding="UTF-8" standalone="no"?>
<!DOCTYPE svg PUBLIC "-//W3C//DTD SVG 1.1//EN"
 "http://www.w3.org/Graphics/SVG/1.1/DTD/svg11.dtd">
<!-- Generated by graphviz version 2.40.1 (20161225.0304)
 -->
<!-- Title: %3 Pages: 1 -->
<svg width="527pt" height="440pt"
 viewBox="0.00 0.00 527.09 440.40" xmlns="http://www.w3.org/2000/svg" xmlns:xlink="http://www.w3.org/1999/xlink">
<g id="graph0" class="graph" transform="scale(1 1) rotate(0) translate(7.2 433.2)">
<title>%3</title>
<polygon fill="#ffffff" stroke="transparent" points="-7.2,7.2 -7.2,-433.2 519.8855,-433.2 519.8855,7.2 -7.2,7.2"/>
<!-- ⚀ -->
<g id="node1" class="node">
<title>⚀</title>
<ellipse fill="none" stroke="#000000" cx="159" cy="-408" rx="27" ry="18"/>
<text text-anchor="middle" x="159" y="-404.9484" font-family="Times,serif" font-size="14.00" fill="#000000">⚀</text>
</g>
<!-- ⚀&#45;&gt;⚀ -->
<g id="edge1" class="edge">
<title>⚀&#45;&gt;⚀</title>
<path fill="none" stroke="#ff0000" stroke-opacity="0.352941" d="M183.8524,-415.1093C191.2465,-414.8971 197,-412.5273 197,-408 197,-405.8778 195.7358,-404.2297 193.631,-403.0556"/>
<polygon fill="#ff0000" fill-opacity="0.352941" stroke="#ff0000" stroke-opacity="0.352941" points="194.3725,-399.6351 183.8524,-400.8907 192.8593,-406.4696 194.3725,-399.6351"/>
<text text-anchor="middle" x="207.8428" y="-406.2" font-family="Helvetica,sans-Serif" font-size="6.00" fill="#f00000"> 0.3358 </text>
</g>
<!-- ⚁ -->
<g id="node2" class="node">
<title>⚁</title>
<ellipse fill="none" stroke="#000000" cx="357" cy="-330" rx="27" ry="18"/>
<text text-anchor="middle" x="357" y="-326.9484" font-family="Times,serif" font-size="14.00" fill="#000000">⚁</text>
</g>
<!-- ⚀&#45;&gt;⚁ -->
<g id="edge2" class="edge">
<title>⚀&#45;&gt;⚁</title>
<path fill="none" stroke="#ff0000" stroke-opacity="0.168627" d="M185.6455,-404.842C227.4081,-399.4859 305.9014,-387.6585 329,-372 334.9459,-367.9693 339.9548,-362.2139 344.0171,-356.2514"/>
<polygon fill="#ff0000" fill-opacity="0.168627" stroke="#ff0000" stroke-opacity="0.168627" points="347.1037,-357.9111 349.2904,-347.5444 341.1162,-354.2848 347.1037,-357.9111"/>
<text text-anchor="middle" x="345.8428" y="-367.2" font-family="Helvetica,sans-Serif" font-size="6.00" fill="#f00000"> 0.1465 </text>
</g>
<!-- ⚂ -->
<g id="node3" class="node">
<title>⚂</title>
<ellipse fill="none" stroke="#000000" cx="194" cy="-18" rx="27" ry="18"/>
<text text-anchor="middle" x="194" y="-14.9484" font-family="Times,serif" font-size="14.00" fill="#000000">⚂</text>
</g>
<!-- ⚀&#45;&gt;⚂ -->
<g id="edge3" class="edge">
<title>⚀&#45;&gt;⚂</title>
<path fill="none" stroke="#ff0000" stroke-opacity="0.141176" d="M132.0527,-405.9291C104.0322,-402.6193 60.0097,-394.0597 29,-372 10.5158,-358.8507 0,-352.6841 0,-330 0,-330 0,-330 0,-96 0,-73.3159 10.1591,-66.6329 29,-54 49.5977,-40.1892 115.0213,-28.9112 157.0351,-22.8492"/>
<polygon fill="#ff0000" fill-opacity="0.141176" stroke="#ff0000" stroke-opacity="0.141176" points="157.7564,-26.2822 167.1707,-21.422 156.7803,-19.3506 157.7564,-26.2822"/>
<text text-anchor="middle" x="10.6216" y="-211.2" font-family="Helvetica,sans-Serif" font-size="6.00" fill="#f00000"> 0.1194 </text>
</g>
<!-- ⚃ -->
<g id="node4" class="node">
<title>⚃</title>
<ellipse fill="none" stroke="#000000" cx="212" cy="-96" rx="27" ry="18"/>
<text text-anchor="middle" x="212" y="-92.9484" font-family="Times,serif" font-size="14.00" fill="#000000">⚃</text>
</g>
<!-- ⚀&#45;&gt;⚃ -->
<g id="edge4" class="edge">
<title>⚀&#45;&gt;⚃</title>
<path fill="none" stroke="#ff0000" stroke-opacity="0.133333" d="M135.5804,-398.6031C123.58,-392.6601 109.7002,-383.8437 101,-372 69.3555,-328.922 50.6746,-172.9738 85,-132 96.6367,-118.1094 142.3596,-107.6427 175.6156,-101.6704"/>
<polygon fill="#ff0000" fill-opacity="0.133333" stroke="#ff0000" stroke-opacity="0.133333" points="176.228,-105.1165 185.4846,-99.9624 175.0342,-98.2191 176.228,-105.1165"/>
<text text-anchor="middle" x="81.6216" y="-250.2" font-family="Helvetica,sans-Serif" font-size="6.00" fill="#f00000"> 0.1133 </text>
</g>
<!-- ⚄ -->
<g id="node5" class="node">
<title>⚄</title>
<ellipse fill="none" stroke="#000000" cx="283" cy="-174" rx="27" ry="18"/>
<text text-anchor="middle" x="283" y="-170.9484" font-family="Times,serif" font-size="14.00" fill="#000000">⚄</text>
</g>
<!-- ⚀&#45;&gt;⚄ -->
<g id="edge5" class="edge">
<title>⚀&#45;&gt;⚄</title>
<path fill="none" stroke="#ff0000" stroke-opacity="0.137255" d="M172.2647,-391.9797C192.2107,-367.2087 230.0314,-317.4967 253,-270 263.6322,-248.0136 271.6015,-221.3964 276.6439,-201.7712"/>
<polygon fill="#ff0000" fill-opacity="0.137255" stroke="#ff0000" stroke-opacity="0.137255" points="280.0733,-202.4827 279.0775,-191.9348 273.2782,-200.8015 280.0733,-202.4827"/>
<text text-anchor="middle" x="254.6216" y="-289.2" font-family="Helvetica,sans-Serif" font-size="6.00" fill="#f00000"> 0.1171 </text>
</g>
<!-- ⚅ -->
<g id="node6" class="node">
<title>⚅</title>
<ellipse fill="none" stroke="#000000" cx="182" cy="-252" rx="27" ry="18"/>
<text text-anchor="middle" x="182" y="-248.9484" font-family="Times,serif" font-size="14.00" fill="#000000">⚅</text>
</g>
<!-- ⚀&#45;&gt;⚅ -->
<g id="edge6" class="edge">
<title>⚀&#45;&gt;⚅</title>
<path fill="none" stroke="#ff0000" stroke-opacity="0.188235" d="M152.5435,-390.3718C146.3569,-370.8957 138.9616,-338.7468 146.3145,-312 149.7434,-299.5267 156.5164,-287.0245 163.2488,-276.6858"/>
<polygon fill="#ff0000" fill-opacity="0.188235" stroke="#ff0000" stroke-opacity="0.188235" points="166.2924,-278.4366 169.0697,-268.2123 160.5226,-274.4731 166.2924,-278.4366"/>
<text text-anchor="middle" x="157.8428" y="-328.2" font-family="Helvetica,sans-Serif" font-size="6.00" fill="#f00000"> 0.1679 </text>
</g>
<!-- ⚁&#45;&gt;⚀ -->
<g id="edge7" class="edge">
<title>⚁&#45;&gt;⚀</title>
<path fill="none" stroke="#ff0000" stroke-opacity="0.352941" d="M338.1246,-342.9927C324.212,-352.107 304.5583,-364.0397 286,-372 256.2506,-384.7606 220.6666,-394.3994 194.7435,-400.4766"/>
<polygon fill="#ff0000" fill-opacity="0.352941" stroke="#ff0000" stroke-opacity="0.352941" points="193.9378,-397.0704 184.967,-402.7074 195.4951,-403.895 193.9378,-397.0704"/>
<text text-anchor="middle" x="309.8428" y="-367.2" font-family="Helvetica,sans-Serif" font-size="6.00" fill="#f00000"> 0.3362 </text>
</g>
<!-- ⚁&#45;&gt;⚁ -->
<g id="edge8" class="edge">
<title>⚁&#45;&gt;⚁</title>
<path fill="none" stroke="#ff0000" stroke-opacity="0.168627" d="M381.8524,-337.1093C389.2465,-336.8971 395,-334.5273 395,-330 395,-327.8778 393.7358,-326.2297 391.631,-325.0556"/>
<polygon fill="#ff0000" fill-opacity="0.168627" stroke="#ff0000" stroke-opacity="0.168627" points="392.3725,-321.6351 381.8524,-322.8907 390.8593,-328.4696 392.3725,-321.6351"/>
<text text-anchor="middle" x="405.8428" y="-328.2" font-family="Helvetica,sans-Serif" font-size="6.00" fill="#f00000"> 0.1468 </text>
</g>
<!-- ⚁&#45;&gt;⚂ -->
<g id="edge9" class="edge">
<title>⚁&#45;&gt;⚂</title>
<path fill="none" stroke="#ff0000" stroke-opacity="0.141176" d="M383.7948,-326.5515C422.8995,-319.8494 491,-301.1256 491,-252 491,-252 491,-252 491,-96 491,-71.4145 476.5803,-65.7787 455,-54 417.2352,-33.3877 294.0374,-23.6293 231.3568,-19.9035"/>
<polygon fill="#ff0000" fill-opacity="0.141176" stroke="#ff0000" stroke-opacity="0.141176" points="231.2981,-16.3945 221.1142,-19.3165 230.8976,-23.383 231.2981,-16.3945"/>
<text text-anchor="middle" x="501.8428" y="-172.2" font-family="Helvetica,sans-Serif" font-size="6.00" fill="#f00000"> 0.1200 </text>
</g>
<!-- ⚁&#45;&gt;⚃ -->
<g id="edge10" class="edge">
<title>⚁&#45;&gt;⚃</title>
<path fill="none" stroke="#ff0000" stroke-opacity="0.137255" d="M348.5521,-312.5251C344.6674,-304.8594 339.8502,-295.8403 335,-288 329.8084,-279.6078 325.0362,-279.3896 322,-270 317.0773,-254.7761 316.7702,-249.1211 322,-234 329.7596,-211.5647 347.2404,-214.4353 355,-192 360.2298,-176.8789 363.8587,-169.3238 355,-156 342.5136,-137.22 285.1294,-117.3245 246.9579,-105.816"/>
<polygon fill="#ff0000" fill-opacity="0.137255" stroke="#ff0000" stroke-opacity="0.137255" points="247.8128,-102.419 237.2307,-102.9385 245.8271,-109.1315 247.8128,-102.419"/>
<text text-anchor="middle" x="352.6216" y="-211.2" font-family="Helvetica,sans-Serif" font-size="6.00" fill="#f00000"> 0.1147 </text>
</g>
<!-- ⚁&#45;&gt;⚄ -->
<g id="edge11" class="edge">
<title>⚁&#45;&gt;⚄</title>
<path fill="none" stroke="#ff0000" stroke-opacity="0.137255" d="M348.798,-312.7092C335.9072,-285.534 310.8115,-232.6296 295.6132,-200.5901"/>
<polygon fill="#ff0000" fill-opacity="0.137255" stroke="#ff0000" stroke-opacity="0.137255" points="298.6869,-198.9032 291.2388,-191.3682 292.3624,-201.9033 298.6869,-198.9032"/>
<text text-anchor="middle" x="337.6216" y="-250.2" font-family="Helvetica,sans-Serif" font-size="6.00" fill="#f00000"> 0.1156 </text>
</g>
<!-- ⚁&#45;&gt;⚅ -->
<g id="edge12" class="edge">
<title>⚁&#45;&gt;⚅</title>
<path fill="none" stroke="#ff0000" stroke-opacity="0.188235" d="M330.4909,-326.2373C292.7078,-320.4507 225.781,-308.5018 206.3145,-294 200.9936,-290.0362 196.6455,-284.5366 193.1752,-278.8213"/>
<polygon fill="#ff0000" fill-opacity="0.188235" stroke="#ff0000" stroke-opacity="0.188235" points="196.2004,-277.055 188.4306,-269.8521 190.0128,-280.3282 196.2004,-277.055"/>
<text text-anchor="middle" x="217.8428" y="-289.2" font-family="Helvetica,sans-Serif" font-size="6.00" fill="#f00000"> 0.1668 </text>
</g>
<!-- ⚂&#45;&gt;⚀ -->
<g id="edge13" class="edge">
<title>⚂&#45;&gt;⚀</title>
<path fill="none" stroke="#ff0000" stroke-opacity="0.349020" d="M168.7752,-24.9106C124.395,-37.8208 37,-66.9341 37,-96 37,-330 37,-330 37,-330 37,-371.2474 87.1142,-391.6628 123.1047,-401.0061"/>
<polygon fill="#ff0000" fill-opacity="0.349020" stroke="#ff0000" stroke-opacity="0.349020" points="122.2856,-404.4088 132.8279,-403.3559 123.9299,-397.6047 122.2856,-404.4088"/>
<text text-anchor="middle" x="47.8428" y="-211.2" font-family="Helvetica,sans-Serif" font-size="6.00" fill="#f00000"> 0.3329 </text>
</g>
<!-- ⚂&#45;&gt;⚁ -->
<g id="edge14" class="edge">
<title>⚂&#45;&gt;⚁</title>
<path fill="none" stroke="#ff0000" stroke-opacity="0.168627" d="M221.0754,-20.5442C286.3425,-27.423 447,-49.117 447,-96 447,-252 447,-252 447,-252 447,-283.1214 415.8882,-304.6106 390.249,-317.0359"/>
<polygon fill="#ff0000" fill-opacity="0.168627" stroke="#ff0000" stroke-opacity="0.168627" points="388.7614,-313.8675 381.1183,-321.2046 391.6687,-320.2352 388.7614,-313.8675"/>
<text text-anchor="middle" x="457.8428" y="-172.2" font-family="Helvetica,sans-Serif" font-size="6.00" fill="#f00000"> 0.1473 </text>
</g>
<!-- ⚂&#45;&gt;⚂ -->
<g id="edge15" class="edge">
<title>⚂&#45;&gt;⚂</title>
<path fill="none" stroke="#ff0000" stroke-opacity="0.141176" d="M218.8524,-25.1093C226.2465,-24.8971 232,-22.5273 232,-18 232,-15.8778 230.7358,-14.2297 228.631,-13.0556"/>
<polygon fill="#ff0000" fill-opacity="0.141176" stroke="#ff0000" stroke-opacity="0.141176" points="229.3725,-9.6351 218.8524,-10.8907 227.8593,-16.4696 229.3725,-9.6351"/>
<text text-anchor="middle" x="242.6216" y="-16.2" font-family="Helvetica,sans-Serif" font-size="6.00" fill="#f00000"> 0.1184 </text>
</g>
<!-- ⚂&#45;&gt;⚃ -->
<g id="edge16" class="edge">
<title>⚂&#45;&gt;⚃</title>
<path fill="none" stroke="#ff0000" stroke-opacity="0.133333" d="M182.3693,-34.4257C178.302,-42.2107 175.4795,-51.6199 178.7568,-60 180.8096,-65.2488 184.0263,-70.192 187.6669,-74.6361"/>
<polygon fill="#ff0000" fill-opacity="0.133333" stroke="#ff0000" stroke-opacity="0.133333" points="185.1624,-77.083 194.5182,-82.0549 190.305,-72.3338 185.1624,-77.083"/>
<text text-anchor="middle" x="189.6216" y="-55.2" font-family="Helvetica,sans-Serif" font-size="6.00" fill="#f00000"> 0.1137 </text>
</g>
<!-- ⚂&#45;&gt;⚄ -->
<g id="edge17" class="edge">
<title>⚂&#45;&gt;⚄</title>
<path fill="none" stroke="#ff0000" stroke-opacity="0.141176" d="M217.8825,-26.5644C239.2863,-35.6683 269.3493,-52.3342 283,-78 294.0788,-98.8301 292.9053,-125.9774 289.642,-146.0864"/>
<polygon fill="#ff0000" fill-opacity="0.141176" stroke="#ff0000" stroke-opacity="0.141176" points="286.1545,-145.6933 287.7391,-156.169 293.0331,-146.9916 286.1545,-145.6933"/>
<text text-anchor="middle" x="302.6216" y="-94.2" font-family="Helvetica,sans-Serif" font-size="6.00" fill="#f00000"> 0.1182 </text>
</g>
<!-- ⚂&#45;&gt;⚅ -->
<g id="edge18" class="edge">
<title>⚂&#45;&gt;⚅</title>
<path fill="none" stroke="#ff0000" stroke-opacity="0.188235" d="M184.431,-35.2396C181.4493,-41.0764 178.3344,-47.7111 176,-54 163.5579,-87.5189 160.7227,-96.5191 156.3145,-132 152.2922,-164.3747 162.2714,-200.9532 170.9414,-225.1235"/>
<polygon fill="#ff0000" fill-opacity="0.188235" stroke="#ff0000" stroke-opacity="0.188235" points="167.7368,-226.5456 174.5323,-234.6741 174.289,-224.0821 167.7368,-226.5456"/>
<text text-anchor="middle" x="167.8428" y="-133.2" font-family="Helvetica,sans-Serif" font-size="6.00" fill="#f00000"> 0.1693 </text>
</g>
<!-- ⚃&#45;&gt;⚀ -->
<g id="edge19" class="edge">
<title>⚃&#45;&gt;⚀</title>
<path fill="none" stroke="#ff0000" stroke-opacity="0.345098" d="M185.4228,-100.0642C166.5342,-104.4763 142.4013,-113.5468 130,-132 77.7383,-209.7654 121.6107,-328.6489 145.7208,-381.3067"/>
<polygon fill="#ff0000" fill-opacity="0.345098" stroke="#ff0000" stroke-opacity="0.345098" points="142.6835,-383.0728 150.1051,-390.6339 149.0186,-380.095 142.6835,-383.0728"/>
<text text-anchor="middle" x="120.8428" y="-250.2" font-family="Helvetica,sans-Serif" font-size="6.00" fill="#f00000"> 0.3284 </text>
</g>
<!-- ⚃&#45;&gt;⚁ -->
<g id="edge20" class="edge">
<title>⚃&#45;&gt;⚁</title>
<path fill="none" stroke="#ff0000" stroke-opacity="0.168627" d="M237.3596,-102.4155C267.6137,-110.265 316.213,-123.5499 333,-132 348.8795,-139.9933 355.3013,-141.1008 365,-156 392.9837,-198.9886 393.4144,-219.774 383,-270 380.607,-281.5408 375.8787,-293.5891 371.1029,-303.8351"/>
<polygon fill="#ff0000" fill-opacity="0.168627" stroke="#ff0000" stroke-opacity="0.168627" points="367.8532,-302.5124 366.5842,-313.031 374.1357,-305.5996 367.8532,-302.5124"/>
<text text-anchor="middle" x="398.8428" y="-211.2" font-family="Helvetica,sans-Serif" font-size="6.00" fill="#f00000"> 0.1476 </text>
</g>
<!-- ⚃&#45;&gt;⚂ -->
<g id="edge21" class="edge">
<title>⚃&#45;&gt;⚂</title>
<path fill="none" stroke="#ff0000" stroke-opacity="0.141176" d="M207.8252,-77.9092C205.6215,-68.3599 202.8699,-56.4362 200.403,-45.7461"/>
<polygon fill="#ff0000" fill-opacity="0.141176" stroke="#ff0000" stroke-opacity="0.141176" points="203.8112,-44.9496 198.1522,-35.9927 196.9905,-46.5237 203.8112,-44.9496"/>
<text text-anchor="middle" x="214.6216" y="-55.2" font-family="Helvetica,sans-Serif" font-size="6.00" fill="#f00000"> 0.1183 </text>
</g>
<!-- ⚃&#45;&gt;⚃ -->
<g id="edge22" class="edge">
<title>⚃&#45;&gt;⚃</title>
<path fill="none" stroke="#ff0000" stroke-opacity="0.141176" d="M236.8524,-103.1093C244.2465,-102.8971 250,-100.5273 250,-96 250,-93.8778 248.7358,-92.2297 246.631,-91.0556"/>
<polygon fill="#ff0000" fill-opacity="0.141176" stroke="#ff0000" stroke-opacity="0.141176" points="247.3725,-87.6351 236.8524,-88.8907 245.8593,-94.4696 247.3725,-87.6351"/>
<text text-anchor="middle" x="260.8428" y="-94.2" font-family="Helvetica,sans-Serif" font-size="6.00" fill="#f00000"> 0.1207 </text>
</g>
<!-- ⚃&#45;&gt;⚄ -->
<g id="edge23" class="edge">
<title>⚃&#45;&gt;⚄</title>
<path fill="none" stroke="#ff0000" stroke-opacity="0.137255" d="M230.0837,-109.7713C237.8622,-116.1185 246.8011,-124.0081 254,-132 258.5146,-137.0119 262.9085,-142.757 266.8544,-148.3559"/>
<polygon fill="#ff0000" fill-opacity="0.137255" stroke="#ff0000" stroke-opacity="0.137255" points="264.1372,-150.5858 272.6392,-156.9078 269.9353,-146.6638 264.1372,-150.5858"/>
<text text-anchor="middle" x="269.6216" y="-133.2" font-family="Helvetica,sans-Serif" font-size="6.00" fill="#f00000"> 0.1159 </text>
</g>
<!-- ⚃&#45;&gt;⚅ -->
<g id="edge24" class="edge">
<title>⚃&#45;&gt;⚅</title>
<path fill="none" stroke="#ff0000" stroke-opacity="0.188235" d="M208.5063,-114.167C203.3037,-141.2208 193.478,-192.3143 187.3615,-224.1204"/>
<polygon fill="#ff0000" fill-opacity="0.188235" stroke="#ff0000" stroke-opacity="0.188235" points="183.8929,-223.6238 185.4414,-234.1048 190.767,-224.9457 183.8929,-223.6238"/>
<text text-anchor="middle" x="210.8428" y="-172.2" font-family="Helvetica,sans-Serif" font-size="6.00" fill="#f00000"> 0.1690 </text>
</g>
<!-- ⚄&#45;&gt;⚀ -->
<g id="edge25" class="edge">
<title>⚄&#45;&gt;⚀</title>
<path fill="none" stroke="#ff0000" stroke-opacity="0.345098" d="M283.4079,-192.0501C283.3589,-199.4937 283.0214,-208.1893 282,-216 278.7971,-240.4936 266.6942,-285.7905 263,-294 245.5177,-332.8504 209.6243,-367.4235 184.9391,-388.0421"/>
<polygon fill="#ff0000" fill-opacity="0.345098" stroke="#ff0000" stroke-opacity="0.345098" points="182.5766,-385.4524 177.0401,-394.4855 187.0013,-390.8766 182.5766,-385.4524"/>
<text text-anchor="middle" x="276.8428" y="-289.2" font-family="Helvetica,sans-Serif" font-size="6.00" fill="#f00000"> 0.3274 </text>
</g>
<!-- ⚄&#45;&gt;⚁ -->
<g id="edge26" class="edge">
<title>⚄&#45;&gt;⚁</title>
<path fill="none" stroke="#ff0000" stroke-opacity="0.172549" d="M303.2719,-185.9513C319.0094,-196.4455 339.8106,-213.2583 350,-234 360.3678,-255.105 361.4531,-282.0124 360.3278,-301.9675"/>
<polygon fill="#ff0000" fill-opacity="0.172549" stroke="#ff0000" stroke-opacity="0.172549" points="356.8353,-301.7373 359.548,-311.9789 363.8141,-302.281 356.8353,-301.7373"/>
<text text-anchor="middle" x="369.8428" y="-250.2" font-family="Helvetica,sans-Serif" font-size="6.00" fill="#f00000"> 0.1518 </text>
</g>
<!-- ⚄&#45;&gt;⚂ -->
<g id="edge27" class="edge">
<title>⚄&#45;&gt;⚂</title>
<path fill="none" stroke="#ff0000" stroke-opacity="0.141176" d="M296.1362,-157.9237C310.5513,-138.1936 329.8015,-104.1422 315,-78 297.6901,-47.4275 259.1927,-32.0887 230.2391,-24.6244"/>
<polygon fill="#ff0000" fill-opacity="0.141176" stroke="#ff0000" stroke-opacity="0.141176" points="230.9842,-21.2041 220.4462,-22.3005 229.3679,-28.0149 230.9842,-21.2041"/>
<text text-anchor="middle" x="330.8428" y="-94.2" font-family="Helvetica,sans-Serif" font-size="6.00" fill="#f00000"> 0.1200 </text>
</g>
<!-- ⚄&#45;&gt;⚃ -->
<g id="edge28" class="edge">
<title>⚄&#45;&gt;⚃</title>
<path fill="none" stroke="#ff0000" stroke-opacity="0.133333" d="M261.5525,-162.6968C251.3368,-156.4825 239.5562,-148.0004 231.1992,-138 227.5362,-133.6166 224.425,-128.4198 221.8421,-123.2019"/>
<polygon fill="#ff0000" fill-opacity="0.133333" stroke="#ff0000" stroke-opacity="0.133333" points="225.001,-121.6909 217.7586,-113.958 218.5979,-124.5195 225.001,-121.6909"/>
<text text-anchor="middle" x="242.4004" y="-133.2" font-family="Helvetica,sans-Serif" font-size="6.00" fill="#f00000"> 0.1118 </text>
</g>
<!-- ⚄&#45;&gt;⚄ -->
<g id="edge29" class="edge">
<title>⚄&#45;&gt;⚄</title>
<path fill="none" stroke="#ff0000" stroke-opacity="0.141176" d="M307.8524,-181.1093C315.2465,-180.8971 321,-178.5273 321,-174 321,-171.8778 319.7358,-170.2297 317.631,-169.0556"/>
<polygon fill="#ff0000" fill-opacity="0.141176" stroke="#ff0000" stroke-opacity="0.141176" points="318.3725,-165.6351 307.8524,-166.8907 316.8593,-172.4696 318.3725,-165.6351"/>
<text text-anchor="middle" x="331.6216" y="-172.2" font-family="Helvetica,sans-Serif" font-size="6.00" fill="#f00000"> 0.1183 </text>
</g>
<!-- ⚄&#45;&gt;⚅ -->
<g id="edge30" class="edge">
<title>⚄&#45;&gt;⚅</title>
<path fill="none" stroke="#ff0000" stroke-opacity="0.192157" d="M265.0996,-187.8241C249.3495,-199.9875 226.2111,-217.8568 208.3472,-231.6527"/>
<polygon fill="#ff0000" fill-opacity="0.192157" stroke="#ff0000" stroke-opacity="0.192157" points="205.8321,-229.1728 200.0568,-238.0552 210.1107,-234.713 205.8321,-229.1728"/>
<text text-anchor="middle" x="246.8428" y="-211.2" font-family="Helvetica,sans-Serif" font-size="6.00" fill="#f00000"> 0.1707 </text>
</g>
<!-- ⚅&#45;&gt;⚀ -->
<g id="edge31" class="edge">
<title>⚅&#45;&gt;⚀</title>
<path fill="none" stroke="#ff0000" stroke-opacity="0.345098" d="M179.3337,-270.0846C175.362,-297.0226 167.8572,-347.9253 163.1597,-379.7865"/>
<polygon fill="#ff0000" fill-opacity="0.345098" stroke="#ff0000" stroke-opacity="0.345098" points="159.6795,-379.3959 161.6834,-389.7995 166.6047,-380.417 159.6795,-379.3959"/>
<text text-anchor="middle" x="183.8428" y="-328.2" font-family="Helvetica,sans-Serif" font-size="6.00" fill="#f00000"> 0.3281 </text>
</g>
<!-- ⚅&#45;&gt;⚁ -->
<g id="edge32" class="edge">
<title>⚅&#45;&gt;⚁</title>
<path fill="none" stroke="#ff0000" stroke-opacity="0.168627" d="M208.0607,-257.1204C232.8584,-262.6217 270.766,-272.6941 301,-288 312.2373,-293.6889 323.5542,-301.6553 333.0446,-309.1228"/>
<polygon fill="#ff0000" fill-opacity="0.168627" stroke="#ff0000" stroke-opacity="0.168627" points="330.9006,-311.8906 340.8664,-315.4869 335.3185,-306.4608 330.9006,-311.8906"/>
<text text-anchor="middle" x="321.8428" y="-289.2" font-family="Helvetica,sans-Serif" font-size="6.00" fill="#f00000"> 0.1465 </text>
</g>
<!-- ⚅&#45;&gt;⚂ -->
<g id="edge33" class="edge">
<title>⚅&#45;&gt;⚂</title>
<path fill="none" stroke="#ff0000" stroke-opacity="0.145098" d="M168.595,-236.2903C151.132,-213.9133 123.7755,-171.2175 132.3145,-132 139.594,-98.5669 159.9873,-64.6325 175.3485,-42.5867"/>
<polygon fill="#ff0000" fill-opacity="0.145098" stroke="#ff0000" stroke-opacity="0.145098" points="178.3888,-44.3525 181.3638,-34.1839 172.6969,-40.2779 178.3888,-44.3525"/>
<text text-anchor="middle" x="143.8428" y="-133.2" font-family="Helvetica,sans-Serif" font-size="6.00" fill="#f00000"> 0.1229 </text>
</g>
<!-- ⚅&#45;&gt;⚃ -->
<g id="edge34" class="edge">
<title>⚅&#45;&gt;⚃</title>
<path fill="none" stroke="#ff0000" stroke-opacity="0.137255" d="M175.9852,-234.2624C170.288,-214.6905 163.7055,-182.4582 171.7568,-156 175.7507,-142.8756 183.6777,-130.0135 191.4481,-119.5854"/>
<polygon fill="#ff0000" fill-opacity="0.137255" stroke="#ff0000" stroke-opacity="0.137255" points="194.4186,-121.4701 197.8486,-111.4458 188.916,-117.1432 194.4186,-121.4701"/>
<text text-anchor="middle" x="182.6216" y="-172.2" font-family="Helvetica,sans-Serif" font-size="6.00" fill="#f00000"> 0.1152 </text>
</g>
<!-- ⚅&#45;&gt;⚄ -->
<g id="edge35" class="edge">
<title>⚅&#45;&gt;⚄</title>
<path fill="none" stroke="#ff0000" stroke-opacity="0.141176" d="M189.3943,-234.4128C193.5426,-226.1814 199.3789,-216.732 206.7568,-210 213.6907,-203.6731 232.8125,-194.6503 250.1702,-187.2206"/>
<polygon fill="#ff0000" fill-opacity="0.141176" stroke="#ff0000" stroke-opacity="0.141176" points="251.6787,-190.3833 259.5433,-183.2842 248.9681,-183.9294 251.6787,-190.3833"/>
<text text-anchor="middle" x="217.6216" y="-211.2" font-family="Helvetica,sans-Serif" font-size="6.00" fill="#f00000"> 0.1184 </text>
</g>
<!-- ⚅&#45;&gt;⚅ -->
<g id="edge36" class="edge">
<title>⚅&#45;&gt;⚅</title>
<path fill="none" stroke="#ff0000" stroke-opacity="0.188235" d="M206.8524,-259.1093C214.2465,-258.8971 220,-256.5273 220,-252 220,-249.8778 218.7358,-248.2297 216.631,-247.0556"/>
<polygon fill="#ff0000" fill-opacity="0.188235" stroke="#ff0000" stroke-opacity="0.188235" points="217.3725,-243.6351 206.8524,-244.8907 215.8593,-250.4696 217.3725,-243.6351"/>
<text text-anchor="middle" x="230.8428" y="-250.2" font-family="Helvetica,sans-Serif" font-size="6.00" fill="#f00000"> 0.1690 </text>
</g>
</g>
</svg>
